<svg id="brahmcast" xmlns="http://www.w3.org/2000/svg" width="95.44108" height="95.43821" viewBox="0 0 95.44108 95.43821"><defs><style>.cls-1{fill:#d99937;}</style></defs><path id="logomark" class="cls-1" d="M100.31123,39.42163c-.147-.44106-.31037-.869-.4868-1.30684A47.93768,47.93768,0,0,0,69.1891,9.62594c-.53253-.16336-1.0618-.31037-1.6074-.44106A47.98617,47.98617,0,0,0,55.29425,7.59055,47.268,47.268,0,0,0,27.1027,16.79389q-.464.32672-.92785.709a44.62227,44.62227,0,0,0-4.63271,4.07077A47.33,47.33,0,0,0,7.61787,53.127a10.7823,10.7823,0,0,0-.0294,1.19575c-.0294.32671-.0294.65342-.0294.98013A47.43458,47.43458,0,0,0,21.54213,89.05171c.45739.45739.92785.91479,1.40158,1.32644a10.22759,10.22759,0,0,0,.95071.84942,47.27448,47.27448,0,0,0,31.39005,11.80068h2.94036v-.10455c.82657-.04574,1.65315-.11761,2.46338-.22216.47045-.04574.94418-.10456,1.40156-.17643a47.37286,47.37286,0,0,0,26.92068-13.4832,46.632,46.632,0,0,0,6.312-7.78871c.25158-.36918.47046-.73835.69262-1.10754a47.8887,47.8887,0,0,0,4.29619-40.724M91.29739,38.154,79.17324,53.34587l-2.63977-11.5197-.07515-.32672h0l-.23523-1.04873L71.26694,18.77045A40.04424,40.04424,0,0,1,91.29734,38.154M69.408,45.86755l3.49575,15.31276-9.77833,12.258H47.41735l-6.7988-8.54-2.9665-3.72773h0l3.49576-15.28336h0V45.799L55.2779,39.05246h0Zm-14.11374-30.436H55.781a38.87486,38.87486,0,0,1,6.84452.69262l4.57391,19.9716L56.84283,31.11345l-.2777-.12742-1.25456-.62077h0l-19.9291-9.58882a39.53158,39.53158,0,0,1,19.9291-5.35473m-27.071,10.60818,17.995,8.65773.0294.0294L35.89435,39.70258l-.26464.134-1.26762.60441v-.08822l-18.51121,8.8211A39.74393,39.74393,0,0,1,28.23962,26.02989M29.37656,62.2127l-.19276.88539h0l-4.159,18.15838a39.59673,39.59673,0,0,1-9.53-23.21908l16.66206-7.9357L29.55947,61.44494Zm2.287,25.19567L35.44029,70.9456l7.168,8.98445.19275.23522.88538,1.10754H43.657L54.703,95.18074A39.5318,39.5318,0,0,1,31.6473,87.40837m32.344,6.82817L53.6641,81.26954H65.48423V81.2238l.05881.04574H85.531a39.81585,39.81585,0,0,1-21.56267,12.967M90.78447,73.43836H73.14225L80.503,64.21868l.281-.32672h0l.61094-.76122h0l12.89188-16.1524A39.7374,39.7374,0,0,1,90.791,73.44161" transform="translate(-7.55892 -7.59025)"/></svg>